HIERARCHY
ROOT hip
{
  OFFSET 0 0 0
  CHANNELS 6 Xposition Yposition Zposition Zrotation Yrotation Xrotation
  JOINT abdomen
  {
    OFFSET 0 20.6881 -0.73152
    CHANNELS 3 Zrotation Xrotation Yrotation
    JOINT chest
    {
      OFFSET 0 11.7043 -0.48768
      CHANNELS 3 Zrotation Xrotation Yrotation
      JOINT neck
      {
        OFFSET 0 22.1894 -2.19456
        CHANNELS 3 Zrotation Xrotation Yrotation
        JOINT head
        {
          OFFSET -0.24384 7.07133 1.2192
          CHANNELS 3 Zrotation Xrotation Yrotation
          JOINT leftEye
          {
            OFFSET 4.14528 8.04674 8.04672
            CHANNELS 3 Zrotation Xrotation Yrotation
            End Site
            {
              OFFSET 1 0 0
            }
          }
          JOINT rightEye
          {
            OFFSET -3.6576 8.04674 8.04672
            CHANNELS 3 Zrotation Xrotation Yrotation
            End Site
            {
              OFFSET 1 0 0
            }
          }
        }
      }
      JOINT rCollar
      {
        OFFSET -2.68224 19.2634 -4.8768
        CHANNELS 3 Zrotation Xrotation Yrotation
        JOINT rShldr
        {
          OFFSET -8.77824 -1.95073 1.46304
          CHANNELS 3 Zrotation Xrotation Yrotation
          JOINT rForeArm
          {
            OFFSET -28.1742 -1.7115 0.48768
            CHANNELS 3 Zrotation Xrotation Yrotation
            JOINT rHand
            {
              OFFSET -22.5879 0.773209 7.07136
              CHANNELS 3 Zrotation Xrotation Yrotation
              JOINT rThumb1
              {
                OFFSET -1.2192 -0.487915 3.41376
                CHANNELS 3 Zrotation Xrotation Yrotation
                JOINT rThumb2
                {
                  OFFSET -3.37035 -0.52449 3.41376
                  CHANNELS 3 Zrotation Xrotation Yrotation
                  End Site
                  {
                    OFFSET -1.78271 -1.18214 1.43049
                  }
                }
              }
              JOINT rIndex1
              {
                OFFSET -7.75947 0.938293 5.60832
                CHANNELS 3 Zrotation Xrotation Yrotation
                JOINT rIndex2
                {
                  OFFSET -2.54057 -0.884171 1.56538
                  CHANNELS 3 Zrotation Xrotation Yrotation
                  End Site
                  {
                    OFFSET -1.62519 -0.234802 1.16502
                  }
                }
              }
              JOINT rMid1
              {
                OFFSET -8.24714 1.18213 3.41376
                CHANNELS 3 Zrotation Xrotation Yrotation
                JOINT rMid2
                {
                  OFFSET -3.10165 -0.590103 1.0647
                  CHANNELS 3 Zrotation Xrotation Yrotation
                  End Site
                  {
                    OFFSET -2.48547 -0.328903 0.83742
                  }
                }
              }
              JOINT rRing1
              {
                OFFSET -8.82822 0.546677 1.51678
                CHANNELS 3 Zrotation Xrotation Yrotation
                JOINT rRing2
                {
                  OFFSET -2.60934 -0.819778 -0.0198488
                  CHANNELS 3 Zrotation Xrotation Yrotation
                  End Site
                  {
                    OFFSET -2.33842 -0.294052 0.168128
                  }
                }
              }
              JOINT rPinky1
              {
                OFFSET -8.27202 -0.0477905 -0.4584
                CHANNELS 3 Zrotation Xrotation Yrotation
                JOINT rPinky2
                {
                  OFFSET -1.82734 -0.647385 -0.700984
                  CHANNELS 3 Zrotation Xrotation Yrotation
                  End Site
                  {
                    OFFSET -1.69225 -0.51767 -0.607171
                  }
                }
              }
            }
          }
        }
      }
      JOINT lCollar
      {
        OFFSET 2.68224 19.2634 -4.8768
        CHANNELS 3 Zrotation Xrotation Yrotation
        JOINT lShldr
        {
          OFFSET 8.77824 -1.95073 1.46304
          CHANNELS 3 Zrotation Xrotation Yrotation
          JOINT lForeArm
          {
            OFFSET 28.1742 -1.7115 0.48768
            CHANNELS 3 Zrotation Xrotation Yrotation
            JOINT lHand
            {
              OFFSET 22.5879 0.773209 7.07136
              CHANNELS 3 Zrotation Xrotation Yrotation
              JOINT lThumb1
              {
                OFFSET 1.2192 -0.487915 3.41376
                CHANNELS 3 Zrotation Xrotation Yrotation
                JOINT lThumb2
                {
                  OFFSET 3.37035 -0.52449 3.41376
                  CHANNELS 3 Zrotation Xrotation Yrotation
                  End Site
                  {
                    OFFSET 1.78271 -1.18214 1.43049
                  }
                }
              }
              JOINT lIndex1
              {
                OFFSET 7.75947 0.938293 5.60832
                CHANNELS 3 Zrotation Xrotation Yrotation
                JOINT lIndex2
                {
                  OFFSET 2.54057 -0.884171 1.56538
                  CHANNELS 3 Zrotation Xrotation Yrotation
                  End Site
                  {
                    OFFSET 1.62519 -0.234802 1.16502
                  }
                }
              }
              JOINT lMid1
              {
                OFFSET 8.24714 1.18213 3.41376
                CHANNELS 3 Zrotation Xrotation Yrotation
                JOINT lMid2
                {
                  OFFSET 3.10165 -0.590103 1.0647
                  CHANNELS 3 Zrotation Xrotation Yrotation
                  End Site
                  {
                    OFFSET 2.48547 -0.328903 0.83742
                  }
                }
              }
              JOINT lRing1
              {
                OFFSET 8.82822 0.546677 1.51678
                CHANNELS 3 Zrotation Xrotation Yrotation
                JOINT lRing2
                {
                  OFFSET 2.60934 -0.819778 -0.0198488
                  CHANNELS 3 Zrotation Xrotation Yrotation
                  End Site
                  {
                    OFFSET 2.33842 -0.294052 0.168128
                  }
                }
              }
              JOINT lPinky1
              {
                OFFSET 8.27202 -0.0477905 -0.4584
                CHANNELS 3 Zrotation Xrotation Yrotation
                JOINT lPinky2
                {
                  OFFSET 1.82734 -0.647385 -0.700984
                  CHANNELS 3 Zrotation Xrotation Yrotation
                  End Site
                  {
                    OFFSET 1.69225 -0.51767 -0.607171
                  }
                }
              }
            }
          }
        }
      }
    }
  }
  JOINT rButtock
  {
    OFFSET -8.77824 4.35084 1.2192
    CHANNELS 3 Zrotation Xrotation Yrotation
    JOINT rThigh
    {
      OFFSET 0 -1.70687 -2.19456
      CHANNELS 3 Zrotation Xrotation Yrotation
      JOINT rShin
      {
        OFFSET 0 -36.8199 0.73152
        CHANNELS 3 Zrotation Xrotation Yrotation
        JOINT rFoot
        {
          OFFSET 0.73152 -45.1104 -5.12064
          CHANNELS 3 Zrotation Xrotation Yrotation
          End Site
          {
            OFFSET -1.1221 -3.69964 12.103
          }
        }
      }
    }
  }
  JOINT lButtock
  {
    OFFSET 8.77824 4.35084 1.2192
    CHANNELS 3 Zrotation Xrotation Yrotation
    JOINT lThigh
    {
      OFFSET 0 -1.70687 -2.19456
      CHANNELS 3 Zrotation Xrotation Yrotation
      JOINT lShin
      {
        OFFSET 0 -36.8199 0.73152
        CHANNELS 3 Zrotation Xrotation Yrotation
        JOINT lFoot
        {
          OFFSET -0.73152 -45.1104 -5.12064
          CHANNELS 3 Zrotation Xrotation Yrotation
          End Site
          {
            OFFSET 1.1221 -3.69964 12.103
          }
        }
      }
    }
  }
}
MOTION
Frames:	9
Frame Time:	0.00833333
8.24109 84.8855 197.916 0.0 0.0 0.0 -0.188091 -0.00125236 -0.00538529 -0.0519264 -0.00198481 -0.00899595 -6.15635e-16 0.0 -2.48481e-17 -1.87292e-15 3.18055e-15 -7.76503e-17 -0.0 0.0 0.0 -0.0 0.0 0.0 -2.49838e-16 -3.88251e-18 1.49089e-16 -4.79607e-15 -2.91965e-16 7.95139e-16 -1.15842e-13 3.22031e-14 0.0 -1.34555e-12 -5.14604e-14 -6.99722e-14 -3.17338e-12 -3.94293e-14 -1.24042e-13 -5.49004e-12 -6.99722e-14 -2.18663e-13 -3.16664e-12 -3.61788e-14 -1.33583e-13 7.73091 5.47488 0.417314 -3.17424e-12 -4.00551e-14 -1.24042e-13 2.90554 0.965183 0.102902 -3.16314e-12 -3.926e-14 -1.24837e-13 10.2786 0.731801 0.0259123 -3.17896e-12 -3.61788e-14 -1.11319e-13 2.22167 -0.733487 -0.20892 -3.46536e-16 -3.88251e-18 -1.49089e-16 -8.72216e-15 -1.05604e-16 -1.19271e-15 -1.20712e-13 -3.85642e-14 9.54166e-15 -1.34314e-12 1.85367e-14 -5.725e-14 -3.17425e-12 -4.041e-14 -1.11319e-13 -5.47811e-12 -6.67917e-14 -2.09121e-13 -3.17976e-12 -3.85642e-14 -1.08139e-13 -7.73091 5.47488 -0.417314 -3.17638e-12 -3.98563e-14 -1.20861e-13 -2.90554 0.965183 -0.102902 -3.18015e-12 -3.97569e-14 -1.20861e-13 -10.2786 0.731801 -0.0259123 -3.17141e-12 -3.89618e-14 -1.27222e-13 -2.22167 -0.733487 0.20892 -2.03217e-16 0.0 -3.88251e-19 0.33672 -2.83766 -0.0337238 -0.00646383 -0.412341 -0.0567795 -0.478858 3.24961 0.120272 2.03217e-16 0.0 3.88251e-19 -0.62355 -3.58112 0.0516579 0.00431637 0.934344 0.0368649 0.481749 2.64641 -0.108458
8.90939 82.2409 192.109 -174.315 -53.4529 -158.484 -1.02791 -7.71075 2.96371 0.197696 -0.38573 0.712815 0.494798 0.923207 0.54524 1.02818 3.24492 0.28546 -0.0 0.0 0.0 -0.0 0.0 0.0 1.52638e-13 -7.10037e-13 1.60383e-14 20.7486 -4.26227 -4.69699 -1.33794 -0.416586 2.25103 0.0946447 6.83437 0.936022 -1.5901e-09 1.08063e-09 -8.00183e-10 -2.76086e-09 1.84794e-09 -1.35018e-09 -1.59009e-09 1.08063e-09 -8.00191e-10 7.73091 5.47488 0.417314 -1.5901e-09 1.08063e-09 -8.00182e-10 2.90554 0.965183 0.102902 -1.5901e-09 1.08063e-09 -8.00184e-10 10.2786 0.731801 0.0259123 -1.59011e-09 1.08063e-09 -8.00171e-10 2.22167 -0.733487 -0.20892 1.52516e-13 -7.10034e-13 1.57684e-14 -21.6442 -3.28825 4.98481 4.03309 -1.79687 -6.33747 -0.00111808 0.74183 -0.104226 -1.34277e-09 -7.90543e-10 -7.96341e-12 -2.31917e-09 -1.36492e-09 -1.00876e-11 -1.34278e-09 -7.90542e-10 -7.95827e-12 -7.73091 5.47488 -0.417314 -1.34277e-09 -7.90543e-10 -7.96816e-12 -2.90554 0.965183 -0.102902 -1.34277e-09 -7.90543e-10 -7.96933e-12 -10.2786 0.731801 -0.0259123 -1.34277e-09 -7.90543e-10 -7.97569e-12 -2.22167 -0.733487 0.20892 -2.03217e-16 0.0 -3.88251e-19 3.30362 -6.58077 -1.68485 -0.103939 9.25105 -0.0632842 0.584336 14.1507 -5.58477 2.03217e-16 0.0 3.88251e-19 -2.76903 -14.0709 0.988346 -0.0653404 9.24085 -0.193242 2.15579 -8.12468 7.98705
8.90814 82.2371 192.079 -174.159 -53.5347 -158.684 -1.02064 -15.7899 6.28806 0.470984 -0.791979 1.47698 0.998886 1.90255 1.12192 2.08191 6.67028 0.590057 -0.0 0.0 0.0 -0.0 0.0 0.0 3.20264e-13 -1.49036e-12 3.19267e-14 41.9167 -8.67429 -9.74925 -2.71486 -0.854088 4.62785 -0.0550274 14.0677 1.9729 -3.31185e-09 2.27789e-09 -1.6961e-09 -5.75084e-09 3.89586e-09 -2.863e-09 -3.31184e-09 2.2779e-09 -1.69611e-09 7.73091 5.47488 0.417314 -3.31185e-09 2.27789e-09 -1.6961e-09 2.90554 0.965183 0.102902 -3.31185e-09 2.27789e-09 -1.6961e-09 10.2786 0.731801 0.0259123 -3.31186e-09 2.27789e-09 -1.69609e-09 2.22167 -0.733487 -0.20892 3.20117e-13 -1.49035e-12 3.16875e-14 -43.9028 -6.67378 10.3032 7.87149 -3.62603 -13.0636 0.000634505 1.52452 -0.214252 -2.79162e-09 -1.69838e-09 -1.73507e-11 -4.82149e-09 -2.93267e-09 -2.23665e-11 -2.79163e-09 -1.69838e-09 -1.73434e-11 -7.73091 5.47488 -0.417314 -2.79162e-09 -1.69838e-09 -1.73501e-11 -2.90554 0.965183 -0.102902 -2.79162e-09 -1.69838e-09 -1.73527e-11 -10.2786 0.731801 -0.0259123 -2.79162e-09 -1.69838e-09 -1.73591e-11 -2.22167 -0.733487 0.20892 -2.03217e-16 0.0 -3.88251e-19 6.19964 -10.5257 -3.46588 -0.204167 19.4684 -0.0725894 4.28102 25.2723 -12.4785 2.03217e-16 0.0 3.88251e-19 -4.62905 -25.1492 2.11822 -0.0631737 18.0209 -0.453578 7.35067 -18.8494 17.3314
8.90409 82.2363 192.078 -174.167 -53.5412 -158.697 -0.148163 -22.8707 9.58093 0.725944 -1.15249 2.15683 1.43164 2.76862 1.63742 2.98635 9.73379 0.867497 -0.0 0.0 0.0 -0.0 0.0 0.0 4.58412e-13 -2.1301e-12 4.78166e-14 60.1305 -12.4396 -14.3969 -3.91585 -1.24205 6.7545 -0.424107 20.4805 2.9764 -4.76396e-09 3.24196e-09 -2.4003e-09 -8.2716e-09 5.54395e-09 -4.05011e-09 -4.76395e-09 3.24196e-09 -2.40031e-09 7.73091 5.47488 0.417314 -4.76397e-09 3.24196e-09 -2.4003e-09 2.90554 0.965183 0.102902 -4.76396e-09 3.24196e-09 -2.4003e-09 10.2786 0.731801 0.0259123 -4.76397e-09 3.24196e-09 -2.40029e-09 2.22167 -0.733487 -0.20892 4.58242e-13 -2.13009e-12 4.76035e-14 -63.2176 -9.56466 15.1452 10.9271 -5.12734 -19.0823 0.00474762 2.22546 -0.312887 -4.02196e-09 -2.37155e-09 -2.36676e-11 -6.94656e-09 -4.09461e-09 -2.98446e-11 -4.02197e-09 -2.37155e-09 -2.36585e-11 -7.73091 5.47488 -0.417314 -4.02196e-09 -2.37155e-09 -2.36628e-11 -2.90554 0.965183 -0.102902 -4.02196e-09 -2.37155e-09 -2.36663e-11 -10.2786 0.731801 -0.0259123 -4.02196e-09 -2.37155e-09 -2.36726e-11 -2.22167 -0.733487 0.20892 -2.03217e-16 0.0 -3.88251e-19 8.5732 -14.0218 -5.10642 -0.290014 28.5778 -0.0840695 10.2991 34.4449 -20.1259 2.03217e-16 0.0 3.88251e-19 -5.83026 -35.0093 3.38618 0.0140406 25.8523 -0.717756 15.239 -27.1068 27.1149
8.8975 82.2341 192.091 -174.278 -53.5104 -158.595 1.02205 -27.7023 12.1497 0.91446 -1.39937 2.62551 1.72359 3.35246 1.99832 3.58689 11.8936 1.06656 -0.0 0.0 0.0 -0.0 0.0 0.0 5.22865e-13 -2.41842e-12 6.37105e-14 72.461 -14.9194 -17.7403 -4.74556 -1.5134 8.25444 -0.823472 24.8636 3.73422 -5.542e-09 3.62304e-09 -2.62519e-09 -9.61929e-09 6.19247e-09 -4.42293e-09 -5.54198e-09 3.62304e-09 -2.62519e-09 7.73091 5.47488 0.417314 -5.542e-09 3.62304e-09 -2.62519e-09 2.90554 0.965183 0.102902 -5.542e-09 3.62304e-09 -2.62519e-09 10.2786 0.731801 0.0259123 -5.542e-09 3.62304e-09 -2.62518e-09 2.22167 -0.733487 -0.20892 5.22678e-13 -2.41841e-12 6.35117e-14 -76.373 -11.5017 18.6168 12.8488 -6.062 -23.2652 0.00909592 2.72203 -0.382847 -4.70602e-09 -2.45807e-09 -2.23084e-11 -8.12848e-09 -4.24202e-09 -2.53212e-11 -4.70602e-09 -2.45807e-09 -2.22989e-11 -7.73091 5.47488 -0.417314 -4.70602e-09 -2.45807e-09 -2.2302e-11 -2.90554 0.965183 -0.102902 -4.70602e-09 -2.45807e-09 -2.23052e-11 -10.2786 0.731801 -0.0259123 -4.70602e-09 -2.45807e-09 -2.23116e-11 -2.22167 -0.733487 0.20892 -2.03217e-16 0.0 -3.88251e-19 10.1152 -16.4372 -6.28996 -0.346884 34.9175 -0.0948076 16.3787 40.1525 -26.7355 2.03217e-16 0.0 3.88251e-19 -6.30556 -41.8612 4.52829 0.118746 31.3135 -0.931167 22.6647 -31.68 35.0134
8.89224 82.2338 192.078 -174.222 -53.5293 -158.691 1.64216 -29.5771 13.2023 1.00139 -1.48894 2.79655 1.83951 3.54767 2.14155 3.78592 12.7871 1.14765 -0.0 0.0 0.0 -0.0 0.0 0.0 4.77445e-13 -2.17507e-12 8.87799e-14 77.2293 -15.8302 -19.0678 -5.09311 -1.62957 8.88924 -0.999648 26.3915 4.01793 -5.41334e-09 3.07682e-09 -2.04398e-09 -9.38602e-09 5.24874e-09 -3.42177e-09 -5.41332e-09 3.07682e-09 -2.04399e-09 7.73091 5.47488 0.417314 -5.41334e-09 3.07682e-09 -2.04398e-09 2.90554 0.965183 0.102902 -5.41334e-09 3.07682e-09 -2.04399e-09 10.2786 0.731801 0.0259123 -5.41334e-09 3.07682e-09 -2.04398e-09 2.22167 -0.733487 -0.20892 4.77248e-13 -2.17506e-12 8.85733e-14 -81.4305 -12.3027 20.0596 13.5227 -6.37331 -24.8287 0.0111971 2.92457 -0.411406 -4.67479e-09 -1.48537e-09 -9.89895e-12 -8.07593e-09 -2.55669e-09 -3.07273e-12 -4.67479e-09 -1.48537e-09 -9.89105e-12 -7.73091 5.47488 -0.417314 -4.67479e-09 -1.48537e-09 -9.89565e-12 -2.90554 0.965183 -0.102902 -4.67479e-09 -1.48537e-09 -9.89632e-12 -10.2786 0.731801 -0.0259123 -4.67479e-09 -1.48537e-09 -9.90276e-12 -2.22167 -0.733487 0.20892 -2.03217e-16 0.0 -3.88251e-19 10.7071 -17.368 -6.7822 -0.367766 37.3778 -0.0998654 19.2363 42.2291 -29.6398 2.03217e-16 0.0 3.88251e-19 -6.37655 -44.5351 5.04551 0.173884 33.4588 -1.02411 25.9875 -33.0694 38.3836
8.90062 82.2349 192.058 -174.067 -53.6104 -158.835 1.61502 -29.3994 13.0172 1.01371 -1.46622 2.75501 1.83318 3.46517 2.129 3.70632 12.7763 1.14221 -0.0 0.0 0.0 -0.0 0.0 0.0 3.53865e-13 -1.55384e-12 1.19967e-13 76.7519 -15.6889 -18.902 -5.10315 -1.63627 8.90519 -0.951812 25.8862 3.92658 -4.63527e-09 1.87353e-09 -8.93434e-10 -8.02057e-09 3.17687e-09 -1.45035e-09 -4.63526e-09 1.87354e-09 -8.93441e-10 7.73091 5.47488 0.417314 -4.63527e-09 1.87353e-09 -8.93436e-10 2.90554 0.965183 0.102902 -4.63527e-09 1.87353e-09 -8.93437e-10 10.2786 0.731801 0.0259123 -4.63528e-09 1.87353e-09 -8.9343e-10 2.22167 -0.733487 -0.20892 3.53663e-13 -1.55383e-12 1.19737e-13 -80.8294 -12.3523 20.0196 13.3786 -6.28727 -24.512 0.0110815 2.91747 -0.410404 -4.13028e-09 2.32589e-10 1.03891e-11 -7.13751e-09 4.18111e-10 3.17925e-11 -4.13028e-09 2.32587e-10 1.03939e-11 -7.73091 5.47488 -0.417314 -4.13028e-09 2.32592e-10 1.03861e-11 -2.90554 0.965183 -0.102902 -4.13028e-09 2.32587e-10 1.03895e-11 -10.2786 0.731801 -0.0259123 -4.13028e-09 2.32594e-10 1.03829e-11 -2.22167 -0.733487 0.20892 -2.03217e-16 0.0 -3.88251e-19 10.6738 -17.2467 -6.75984 -0.364507 37.0672 -0.0994421 18.8919 42.1103 -29.2301 2.03217e-16 0.0 3.88251e-19 -6.35412 -44.2363 4.95877 0.168753 33.236 -1.01435 25.6007 -32.799 38.074
8.90508 82.2363 192.058 -174.05 -53.6535 -158.829 1.33375 -28.3965 12.3481 0.995444 -1.3965 2.63124 1.77066 3.26234 2.05432 3.52808 12.4068 1.10329 -0.0 0.0 0.0 -0.0 0.0 0.0 2.09737e-13 -8.44933e-13 1.38928e-13 74.1727 -15.1334 -18.1329 -4.96672 -1.5945 8.65247 -0.824033 24.6156 3.6972 -3.53822e-09 5.85195e-10 2.68767e-10 -6.10411e-09 9.62313e-10 5.34836e-10 -3.53821e-09 5.85201e-10 2.68757e-10 7.73091 5.47488 0.417314 -3.53822e-09 5.85196e-10 2.68762e-10 2.90554 0.965183 0.102902 -3.53822e-09 5.85196e-10 2.68763e-10 10.2786 0.731801 0.0259123 -3.53823e-09 5.85197e-10 2.68768e-10 2.22167 -0.733487 -0.20892 2.09536e-13 -8.44928e-13 1.38678e-13 -77.9741 -12.1033 19.3742 12.9108 -6.04532 -23.4584 0.0101411 2.83922 -0.399365 -3.30125e-09 1.86799e-09 3.33425e-11 -5.70728e-09 3.24885e-09 7.02281e-11 -3.30126e-09 1.86799e-09 3.33442e-11 -7.73091 5.47488 -0.417314 -3.30125e-09 1.868e-09 3.33332e-11 -2.90554 0.965183 -0.102902 -3.30126e-09 1.86799e-09 3.33405e-11 -10.2786 0.731801 -0.0259123 -3.30125e-09 1.868e-09 3.33339e-11 -2.22167 -0.733487 0.20892 -2.03217e-16 0.0 -3.88251e-19 10.4007 -16.7041 -6.50249 -0.351896 35.651 -0.0972869 17.2854 41.0664 -27.5433 2.03217e-16 0.0 3.88251e-19 -6.27653 -42.7479 4.66314 0.139403 32.0644 -0.963029 23.7222 -31.8716 36.2768
8.90511 82.236 192.061 -174.077 -53.6496 -158.795 1.19869 -27.7954 11.9545 0.990494 -1.3451 2.55563 1.71812 3.0965 2.01114 3.43044 12.224 1.08422 -0.0 0.0 0.0 -0.0 0.0 0.0 1.02671e-13 -3.38533e-13 1.27322e-13 72.6318 -14.7994 -17.6515 -4.87366 -1.56498 8.4813 -0.752407 23.8481 3.56191 -2.4526e-09 -2.16173e-10 8.84923e-10 -4.2178e-09 -4.09493e-10 1.57726e-09 -2.45259e-09 -2.16166e-10 8.8491e-10 7.73091 5.47488 0.417314 -2.4526e-09 -2.16171e-10 8.84916e-10 2.90554 0.965183 0.102902 -2.45259e-09 -2.16172e-10 8.84917e-10 10.2786 0.731801 0.0259123 -2.4526e-09 -2.1617e-10 8.84923e-10 2.22167 -0.733487 -0.20892 1.02482e-13 -3.38529e-13 1.27073e-13 -76.2522 -12.0003 19.0056 12.617 -5.89084 -22.8107 0.00982068 2.82828 -0.397815 -2.41647e-09 2.59303e-09 5.37482e-11 -4.17932e-09 4.50201e-09 1.03188e-10 -2.41648e-09 2.59303e-09 5.37482e-11 -7.73091 5.47488 -0.417314 -2.41647e-09 2.59304e-09 5.37355e-11 -2.90554 0.965183 -0.102902 -2.41648e-09 2.59303e-09 5.3745e-11 -10.2786 0.731801 -0.0259123 -2.41647e-09 2.59304e-09 5.37387e-11 -2.22167 -0.733487 0.20892 -2.03217e-16 0.0 -3.88251e-19 10.2691 -16.3705 -6.2911 -0.344671 34.7945 -0.0971987 16.4061 40.3564 -26.6606 2.03217e-16 0.0 3.88251e-19 -6.17914 -41.8527 4.55698 0.123242 31.3635 -0.932176 22.5933 -31.2557 35.189
